<svg width="48" height="48" viewBox="0 0 48 48" fill="none" xmlns="http://www.w3.org/2000/svg">
<circle cx="24.5" cy="24.5" r="23.5" fill="black"/>
<path d="M15.76 36V34.944C16.5707 34.9013 17.1253 34.72 17.424 34.4C17.7227 34.0587 17.8827 33.6 17.904 33.024C17.9467 32.4267 17.968 31.7547 17.968 31.008V17.184C17.968 16.7573 17.9787 16.352 18 15.968C18.0213 15.5627 18.0427 15.2 18.064 14.88C17.68 14.9013 17.296 14.9227 16.912 14.944C16.528 14.9653 16.144 14.9867 15.76 15.008V13.6C16.9547 13.5787 18.16 13.5573 19.376 13.536C20.6133 13.5147 21.8507 13.5253 23.088 13.568C25.1573 13.5893 26.8213 13.8347 28.08 14.304C29.36 14.752 30.2987 15.4027 30.896 16.256C31.4933 17.088 31.792 18.1013 31.792 19.296C31.8133 20.128 31.6533 20.9813 31.312 21.856C30.992 22.7093 30.3947 23.4773 29.52 24.16C28.6667 24.8427 27.4293 25.3547 25.808 25.696C26.2347 25.9947 26.608 26.3787 26.928 26.848C27.248 27.3173 27.6107 27.8613 28.016 28.48L30.192 31.904C30.5547 32.48 30.9067 33.0027 31.248 33.472C31.5893 33.92 31.984 34.2827 32.432 34.56C32.88 34.816 33.4347 34.944 34.096 34.944V36H30.064C29.4453 35.4453 28.9227 34.8907 28.496 34.336C28.0907 33.7813 27.664 33.152 27.216 32.448L25.072 29.024C24.7947 28.576 24.4747 28.064 24.112 27.488C23.7707 26.8907 23.376 26.3893 22.928 25.984C22.5867 26.0053 22.224 26.016 21.84 26.016C21.4773 26.016 21.1147 26.0053 20.752 25.984V32.192C20.752 32.768 20.7413 33.2693 20.72 33.696C20.72 34.1013 20.6987 34.4427 20.656 34.72C20.912 34.6987 21.168 34.688 21.424 34.688C21.68 34.6667 21.936 34.6453 22.192 34.624C22.448 34.6027 22.704 34.592 22.96 34.592V36H15.76ZM22.736 24.8C23.9093 24.7573 24.9333 24.5653 25.808 24.224C26.704 23.8827 27.408 23.3387 27.92 22.592C28.432 21.8453 28.688 20.864 28.688 19.648C28.688 18.8373 28.5707 18.1333 28.336 17.536C28.1227 16.9173 27.7813 16.4053 27.312 16C26.8427 15.5947 26.2453 15.296 25.52 15.104C24.7947 14.8907 23.9413 14.784 22.96 14.784C22.1707 14.784 21.616 14.944 21.296 15.264C20.9973 15.584 20.8267 16.032 20.784 16.608C20.7627 17.1627 20.752 17.824 20.752 18.592V24.736C21.0933 24.7573 21.4133 24.7787 21.712 24.8C22.032 24.8213 22.3733 24.8213 22.736 24.8Z" fill="white"/>
</svg>
